Coordinates
version=1
nRows=17
nColumns=36
inDegrees=yes

Units are S.I. units (second, meters, Newtons, ...)
If the header above contains a line with 'inDegrees', this indicates whether rotational values are in degrees (yes) or radians (no).

endheader
time	pelvis_tilt	pelvis_list	pelvis_rotation	pelvis_tx	pelvis_ty	pelvis_tz	hip_flexion_r	hip_adduction_r	hip_rotation_r	knee_angle_r	knee_angle_r_beta	ankle_angle_r	subtalar_angle_r	mtp_angle_r	hip_flexion_l	hip_adduction_l	hip_rotation_l	knee_angle_l	knee_angle_l_beta	ankle_angle_l	subtalar_angle_l	mtp_angle_l	lumbar_extension	lumbar_bending	lumbar_rotation	arm_flex_r	arm_add_r	arm_rot_r	elbow_flex_r	pro_sup_r	arm_flex_l	arm_add_l	arm_rot_l	elbow_flex_l	pro_sup_l
      3.34000000	    -22.34451360	      2.55052927	     -3.53795465	     -0.26761196	      0.84350154	     -0.54452099	     57.39692685	     -2.38895964	      3.10875442	     52.29020354	      0.91263622	     20.82217222	    -11.56118891	     -7.49999987	     59.45716661	    -14.46918491	     -6.45633621	     54.73523289	      0.95531003	      7.21074052	     -7.11985307	     -7.49999987	    -18.00973881	      2.08109673	      2.41947614	     79.74561452	     -6.73493723	     15.00561150	     86.53397540	    111.68017580	     77.14336150	     -1.85596471	      4.57142834	     84.28958781	    108.67898572
      3.35000000	    -23.11700162	      2.58242984	     -3.46284918	     -0.27109184	      0.83816899	     -0.54459419	     59.05880802	     -2.35877811	      3.16313724	     53.34901200	      0.93111591	     21.29694566	    -11.48793849	     -7.49999987	     61.10587835	    -14.50020524	     -6.12048534	     55.64500177	      0.97118849	      7.43318400	     -7.21822025	     -7.49999987	    -18.13052433	      2.17585813	      2.34579130	     81.08536436	     -6.49867255	     15.56795995	     87.87923634	    111.79151382	     77.93600281	     -1.75122111	      4.60410611	     86.21345475	    108.88891201
      3.36000000	    -23.70052219	      2.62393451	     -3.40617216	     -0.27441785	      0.83314083	     -0.54460068	     60.50525493	     -2.34966416	      3.20920194	     54.42066076	      0.94981971	     21.77286992	    -11.48125859	     -7.49999987	     62.54036442	    -14.57572986	     -5.91456197	     56.57697142	      0.98745443	      7.64810901	     -7.28231791	     -7.49999987	    -18.43870586	      2.24458889	      2.37737351	     82.37314169	     -6.27918915	     16.00321708	     89.07946500	    111.88588329	     78.81725830	     -1.56843577	      4.72718146	     87.81743399	    109.06802876
      3.37000000	    -24.15010282	      2.67289843	     -3.38358027	     -0.27765328	      0.82840958	     -0.54445282	     61.77111718	     -2.30650357	      3.29299326	     55.44167645	      0.96763980	     22.15020344	    -11.59022000	     -7.49999987	     63.78816646	    -14.67709763	     -5.73302659	     57.46271227	      1.00291353	      7.79370447	     -7.34290636	     -7.49999987	    -18.87713745	      2.21032934	      2.40342003	     83.69112934	     -6.05728203	     16.26254764	     90.09951335	    111.96601954	     79.74835946	     -1.32946436	      4.88735569	     89.09480820	    109.21461732
      3.38000000	    -24.94942625	      2.72298580	     -3.28835500	     -0.28071728	      0.82332860	     -0.54447338	     63.34808077	     -2.28914494	      3.34680316	     56.34340164	      0.98337787	     22.71574110	    -11.62461403	     -7.49999987	     65.35910507	    -14.69662528	     -5.49131418	     58.23149073	      1.01633124	      8.06904718	     -7.29541076	     -7.49999987	    -18.90107657	      2.30875060	      2.40885226	     84.72320199	     -5.94615211	     16.86447108	     91.51702325	    112.09012894	     80.32673780	     -1.31559964	      5.14087618	     91.03928757	    109.46423086
      3.39000000	    -25.35198816	      2.75074077	     -3.23940450	     -0.28365130	      0.81872300	     -0.54423651	     64.57165729	     -2.22517837	      3.37917173	     57.39656211	      1.00175899	     23.05006180	    -11.79968411	     -7.49999987	     66.54027782	    -14.77564546	     -5.25563231	     59.10907621	      1.03164800	      8.19875426	     -7.31425480	     -7.49999987	    -19.32420244	      2.28062684	      2.40974470	     85.89239484	     -5.71741222	     17.10299277	     92.43103733	    112.15964594	     81.17022704	     -1.14101267	      5.34301369	     92.23731926	    109.61520408
      3.40000000	    -25.79642286	      2.77144897	     -3.17163919	     -0.28644301	      0.81423154	     -0.54400218	     65.76170465	     -2.16534134	      3.42091296	     58.32331906	      1.01793395	     23.35199038	    -11.94233082	     -7.49999987	     67.71319227	    -14.82595051	     -5.00530453	     59.87438980	      1.04500524	      8.34858883	     -7.34475842	     -7.49999987	    -19.67661079	      2.26815947	      2.41098810	     87.00596705	     -5.55358975	     17.39384814	     93.36111406	    112.23550322	     81.90256962	     -0.94963552	      5.56950163	     93.44009694	    109.75807953
      3.41000000	    -26.46852682	      2.75468839	     -3.07130880	     -0.28892986	      0.80955145	     -0.54407222	     67.12695532	     -2.16969254	      3.37822225	     59.17545585	      1.03280654	     23.78270493	    -11.88449345	     -7.49999987	     69.13436553	    -14.84896692	     -4.72324541	     60.66418579	      1.05878978	      8.60841312	     -7.28661467	     -7.49999987	    -19.71861110	      2.41036757	      2.39875620	     87.83675117	     -5.55429448	     18.12435368	     94.65006294	    112.36269381	     82.23726837	     -0.89801476	      5.90730783	     95.25329304	    109.97946268
      3.42000000	    -26.80135960	      2.78176281	     -3.02749035	     -0.29141728	      0.80532711	     -0.54396872	     68.18049079	     -2.16389102	      3.41202973	     60.09424817	      1.04884249	     24.02409630	    -11.90145272	     -7.49999987	     70.18943175	    -14.89794390	     -4.51351185	     61.48294028	      1.07307974	      8.71457421	     -7.31066811	     -7.49999987	    -20.13595588	      2.38906088	      2.41021236	     88.83310917	     -5.42718232	     18.37858402	     95.39205233	    112.42857219	     82.92401219	     -0.73902242	      6.12714650	     96.30717740	    110.11275257
      3.43000000	    -27.37532270	      2.81429015	     -2.90897766	     -0.29367220	      0.80082182	     -0.54416470	     69.46954899	     -2.25601277	      3.39380531	     60.99574394	      1.06457656	     24.42871028	    -11.68355831	     -7.49999987	     71.46705732	    -14.82236601	     -4.21750070	     62.23363816	      1.08618189	      8.94113395	     -7.28971474	     -7.49999987	    -20.21675975	      2.47107805	      2.34651533	     89.60622890	     -5.38940809	     19.01937060	     96.48857745	    112.54037876	     83.25099377	     -0.79111389	      6.52295951	     97.89558190	    110.34043135
      3.44000000	    -27.72157989	      2.86294809	     -2.84252075	     -0.29581022	      0.79658199	     -0.54418959	     70.55211801	     -2.29937199	      3.42205969	     61.96098179	      1.08142314	     24.75173779	    -11.64335117	     -7.49999987	     72.50666143	    -14.80819952	     -4.00077477	     63.03958914	      1.10024839	      9.08632078	     -7.33394697	     -7.49999987	    -20.52331491	      2.47103147	      2.35221536	     90.40456797	     -5.31839455	     19.39515717	     97.32618041	    112.61903745	     83.72252067	     -0.72396022	      6.86319220	     99.03328685	    110.49893015
      3.45000000	    -28.02522553	      2.88987529	     -2.81732005	     -0.29788791	      0.79237915	     -0.54410803	     71.56328991	     -2.26999356	      3.49061913	     62.87588210	      1.09739116	     25.02055979	    -11.67842126	     -7.49999987	     73.50281011	    -14.86430088	     -3.80934860	     63.85495902	      1.11447928	      9.20256527	     -7.37928148	     -7.49999987	    -20.86578562	      2.47055609	      2.40804780	     91.19002939	     -5.26129421	     19.72973062	     98.11251508	    112.69569117	     84.23344351	     -0.62987650	      7.15469837	    100.07312121	    110.63726333
      3.46000000	    -28.33959961	      2.90687763	     -2.80802521	     -0.29986380	      0.78819135	     -0.54396157	     72.55338012	     -2.22831002	      3.52186282	     63.74869718	      1.11262466	     25.25437532	    -11.69983462	     -7.49999987	     74.49562663	    -14.94968149	     -3.61690124	     64.65777018	      1.12849098	      9.32227220	     -7.41053254	     -7.49999987	    -21.16662204	      2.46446236	      2.45183879	     91.92415420	     -5.24335990	     20.11814197	     98.90602863	    112.77976327	     84.67796686	     -0.56916892	      7.44898548	    101.12833433	    110.78149232
      3.47000000	    -28.79028689	      2.89878169	     -2.79141881	     -0.30176450	      0.78385040	     -0.54393034	     73.66064158	     -2.20301176	      3.51588747	     64.57955106	      1.12712580	     25.56256267	    -11.54913327	     -7.49999987	     75.64374513	    -15.02562228	     -3.37471524	     65.44071802	      1.14215599	      9.50154822	     -7.34863437	     -7.49999987	    -21.28549237	      2.52897083	      2.53080090	     92.56501126	     -5.36040791	     20.75533965	     99.83092797	    112.89494672	     84.95873999	     -0.63911915	      7.90073403	    102.42243739	    110.97887473
      3.48000000	    -29.10037847	      2.90003382	     -2.82496512	     -0.30362196	      0.77965498	     -0.54369268	     74.64054461	     -2.12433982	      3.52679394	     65.44622258	      1.14225207	     25.83661343	    -11.48139970	     -7.49999987	     76.65366361	    -15.19012978	     -3.20381190	     66.26866379	      1.15660637	      9.60329891	     -7.29214174	     -7.49999987	    -21.54511696	      2.51475814	      2.65968854	     93.21227162	     -5.43549402	     21.13283080	    100.47679417	    112.97447199	     85.37625622	     -0.61453701	      8.30350280	    103.34925016	    111.12265942
      3.49000000	    -29.47803137	      2.85955970	     -2.87979512	     -0.30540775	      0.77541937	     -0.54331668	     75.63092398	     -1.95502527	      3.55714611	     66.23962772	      1.15609960	     26.16456973	    -11.38409683	     -7.49999987	     77.73229107	    -15.39332969	     -2.96344234	     67.06918503	      1.17057811	      9.73447046	     -7.14347873	     -7.49999987	    -21.71577962	      2.52522506	      2.81488901	     93.81890783	     -5.55431786	     21.60110698	    101.22305089	    113.07123486	     85.70672001	     -0.65669914	      8.74950677	    104.31824023	    111.28424149
      3.50000000	    -29.77131317	      2.82685012	     -2.96224578	     -0.30710308	      0.77129027	     -0.54291127	     76.54400373	     -1.78269697	      3.58069141	     67.03457356	      1.16997402	     26.41488118	    -11.37165203	     -7.49999987	     78.70726458	    -15.63348865	     -2.74555384	     67.88126371	      1.18475155	      9.84845206	     -7.04762750	     -7.49999987	    -21.94368657	      2.51848926	      2.94142934	     94.37701146	     -5.59691802	     21.99962051	    101.87066018	    113.14883247	     86.10645136	     -0.70420672	      9.12995955	    105.16922757	    111.43067929
